<?xml version="1.0" encoding="UTF-8" standalone="no"?><!DOCTYPE svg PUBLIC "-//W3C//DTD SVG 1.1//EN" "http://www.w3.org/Graphics/SVG/1.1/DTD/svg11.dtd"><svg width="100%" height="100%" viewBox="0 0 1167 592" version="1.1" xmlns="http://www.w3.org/2000/svg" xmlns:xlink="http://www.w3.org/1999/xlink" xml:space="preserve" xmlns:serif="http://www.serif.com/" style="fill-rule:evenodd;clip-rule:evenodd;stroke-linejoin:round;stroke-miterlimit:2;"><rect id="Logotext-Split-Logotext-Split-Dark" serif:id="Logotext/Split/Logotext Split Dark" x="0.174" y="0" width="1166.44" height="591.29" style="fill:none;"/><clipPath id="_clip1"><rect x="0.174" y="0" width="1166.44" height="591.29"/></clipPath><g clip-path="url(#_clip1)"><g id="Logotext-Split" serif:id="Logotext Split"><path id="Path" d="M153.306,233.353l11.093,9.449c-6.574,11.778 -14.105,20.816 -22.596,27.115c-8.491,6.3 -19.583,9.45 -33.278,9.45c-11.777,-0 -22.938,-2.397 -33.482,-7.19c-10.545,-4.793 -19.173,-12.256 -25.883,-22.39c-6.71,-10.134 -10.065,-22.87 -10.065,-38.208l-0,-115.033l-4.109,-4.109l-32.866,0l-0,-14.379c20.541,-4.108 38.344,-13.009 53.408,-26.704c15.064,-13.694 24.65,-30.812 28.758,-51.354l14.379,-0l0,78.058l61.625,0l0,14.379l-58.338,0l-3.287,4.109l0,125.715c0,8.764 1.986,16.022 5.958,21.774c3.971,5.752 9.654,8.627 17.049,8.627c4.656,0 9.723,-1.437 15.201,-4.313c5.478,-2.876 10.956,-7.875 16.433,-14.996Z" style="fill:#003049;fill-rule:nonzero;"/><path id="Path1" serif:id="Path" d="M403.235,78.058l77.648,0l-0,14.379l-24.65,0l-61.214,182.821l-26.704,0l-53.409,-131.466l-2.054,-0l-53.408,131.466l-26.704,0l-73.95,-182.821l-20.953,0l0,-14.379l113.39,0l0,14.379l-20.542,0l-4.108,4.109l41.494,104.762l2.054,0l34.1,-82.577l-10.682,-26.294l-17.666,0l0,-14.379l102.708,0l0,14.379l-16.433,0l-4.108,4.109l41.083,104.762l2.054,0l34.921,-104.762l-4.108,-4.109l-28.759,0l0,-14.379Z" style="fill:#003049;fill-rule:nonzero;"/><path id="Shape" d="M565.246,73.95c20.268,-0 38.276,4.04 54.025,12.12c15.749,8.079 28.142,19.788 37.18,35.126c9.039,15.338 13.558,33.825 13.558,55.462c-0,21.638 -4.519,40.125 -13.558,55.463c-9.038,15.338 -21.431,27.046 -37.18,35.126c-15.749,8.08 -33.757,12.12 -54.025,12.12c-20.267,-0 -38.276,-4.04 -54.024,-12.12c-15.749,-8.08 -28.142,-19.788 -37.181,-35.126c-9.038,-15.338 -13.557,-33.825 -13.557,-55.463c-0,-21.637 4.519,-40.124 13.557,-55.462c9.039,-15.338 21.432,-27.047 37.181,-35.126c15.748,-8.08 33.757,-12.12 54.024,-12.12Zm2.054,191.037c9.587,0 17.05,-4.039 22.391,-12.119c5.341,-8.08 9.107,-18.419 11.298,-31.018c2.191,-12.599 3.286,-25.472 3.286,-38.618c0,-21.364 -2.054,-39.03 -6.162,-52.998c-4.108,-13.968 -9.312,-24.444 -15.612,-31.429c-6.299,-6.984 -12.736,-10.476 -19.309,-10.476c-9.312,0 -16.707,4.04 -22.185,12.12c-5.478,8.079 -9.312,18.35 -11.503,30.812c-2.191,12.462 -3.287,25.403 -3.287,38.824c0,21.089 2.054,38.687 6.163,52.792c4.108,14.105 9.38,24.65 15.817,31.634c6.436,6.984 12.804,10.476 19.103,10.476Z" style="fill:#003049;fill-rule:nonzero;"/><path id="Path2" serif:id="Path" d="M153.306,541.228l11.093,9.449c-6.574,11.778 -14.105,20.816 -22.596,27.115c-8.491,6.3 -19.583,9.45 -33.278,9.45c-11.777,-0 -22.938,-2.397 -33.482,-7.19c-10.545,-4.793 -19.173,-12.256 -25.883,-22.39c-6.71,-10.134 -10.065,-22.87 -10.065,-38.208l-0,-115.033l-4.109,-4.109l-32.866,0l-0,-14.379c20.541,-4.108 38.344,-13.009 53.408,-26.704c15.064,-13.694 24.65,-30.812 28.758,-51.354l14.379,-0l0,78.058l61.625,0l0,14.379l-58.338,0l-3.287,4.109l0,125.715c0,8.764 1.986,16.022 5.958,21.774c3.971,5.752 9.654,8.627 17.049,8.627c4.656,0 9.723,-1.437 15.201,-4.313c5.478,-2.876 10.956,-7.875 16.433,-14.996Z" style="fill:#003049;fill-rule:nonzero;"/><path id="Path3" serif:id="Path" d="M403.235,385.933l77.648,0l-0,14.379l-24.65,0l-61.214,182.821l-26.704,0l-53.409,-131.466l-2.054,-0l-53.408,131.466l-26.704,0l-73.95,-182.821l-20.953,0l0,-14.379l113.39,0l0,14.379l-20.542,0l-4.108,4.109l41.494,104.762l2.054,0l34.1,-82.577l-10.682,-26.294l-17.666,0l0,-14.379l102.708,0l0,14.379l-16.433,0l-4.108,4.109l41.083,104.762l2.054,0l34.921,-104.762l-4.108,-4.109l-28.759,0l0,-14.379Z" style="fill:#003049;fill-rule:nonzero;"/><path id="Path4" serif:id="Path" d="M580.036,566.7c13.695,-0 26.088,-3.287 37.181,-9.86c11.092,-6.573 20.336,-13.831 27.731,-21.774l11.092,9.449c-5.751,6.847 -12.393,13.557 -19.925,20.131c-7.532,6.573 -16.913,11.982 -28.142,16.228c-11.229,4.245 -25.472,6.368 -42.727,6.368c-18.898,-0 -36.29,-4.04 -52.176,-12.12c-15.885,-8.08 -28.621,-19.788 -38.207,-35.126c-9.586,-15.338 -14.379,-33.825 -14.379,-55.463c-0,-21.637 4.793,-40.124 14.379,-55.462c9.586,-15.338 22.322,-27.047 38.207,-35.126c15.886,-8.08 33.278,-12.12 52.176,-12.12c17.803,-0 33.689,3.424 47.657,10.271c13.968,6.847 24.992,17.529 33.072,32.045c8.08,14.516 12.12,33.277 12.12,56.284l-146.257,-0l-0,-14.379l82.577,-0c-1.095,-23.829 -4.313,-41.426 -9.654,-52.792c-5.341,-11.367 -13.215,-17.05 -23.623,-17.05c-7.395,0 -13.694,3.629 -18.898,10.887c-5.204,7.258 -9.176,17.529 -11.915,30.813c-2.738,13.283 -4.108,28.827 -4.108,46.629c0,17.529 1.986,32.388 5.957,44.576c3.972,12.188 9.929,21.5 17.871,27.936c7.943,6.437 17.94,9.655 29.991,9.655Z" style="fill:#003049;fill-rule:nonzero;"/><path id="Path5" serif:id="Path" d="M658.648,583.133l-0,-14.379l20.542,0l4.108,-4.108l-0,-262.934l-4.108,-4.108l-20.542,0l-0,-14.379c7.121,-0 15.612,-0.068 25.472,-0.205c9.86,-0.137 19.651,-0.548 29.374,-1.233c9.723,-0.685 18.145,-1.575 25.266,-2.67l4.109,4.108l-0,281.421l4.108,4.108l20.542,0l-0,14.379l-108.871,0Z" style="fill:#003049;fill-rule:nonzero;"/><path id="Path6" serif:id="Path" d="M907.345,385.933l77.647,0l0,14.379l-24.65,0l-74.772,182.821l-26.704,0l-85.864,-182.821l-20.542,0l0,-14.379l112.98,0l-0,14.379l-20.542,0l-4.108,4.109l50.975,112.979l2.022,-0l46.424,-112.979l-4.108,-4.109l-28.758,0l-0,-14.379Z" style="fill:#003049;fill-rule:nonzero;"/><path id="Path7" serif:id="Path" d="M1086.61,566.7c13.695,-0 26.088,-3.287 37.181,-9.86c11.092,-6.573 20.336,-13.831 27.731,-21.774l11.093,9.449c-5.752,6.847 -12.394,13.557 -19.926,20.131c-7.532,6.573 -16.912,11.982 -28.142,16.228c-11.229,4.245 -25.472,6.368 -42.727,6.368c-18.898,-0 -36.29,-4.04 -52.175,-12.12c-15.886,-8.08 -28.622,-19.788 -38.208,-35.126c-9.586,-15.338 -14.379,-33.825 -14.379,-55.463c-0,-21.637 4.793,-40.124 14.379,-55.462c9.586,-15.338 22.322,-27.047 38.208,-35.126c15.885,-8.08 33.277,-12.12 52.175,-12.12c17.803,-0 33.689,3.424 47.657,10.271c13.968,6.847 24.993,17.529 33.072,32.045c8.08,14.516 12.12,33.277 12.12,56.284l-146.257,-0l0,-14.379l82.578,-0c-1.096,-23.829 -4.314,-41.426 -9.655,-52.792c-5.341,-11.367 -13.215,-17.05 -23.623,-17.05c-7.395,0 -13.694,3.629 -18.898,10.887c-5.204,7.258 -9.175,17.529 -11.914,30.813c-2.739,13.283 -4.109,28.827 -4.109,46.629c0,17.529 1.986,32.388 5.957,44.576c3.972,12.188 9.929,21.5 17.872,27.936c7.942,6.437 17.939,9.655 29.99,9.655Z" style="fill:#003049;fill-rule:nonzero;"/></g></g></svg>