<?xml version="1.0" encoding="UTF-8" standalone="no"?>
<!DOCTYPE svg PUBLIC "-//W3C//DTD SVG 1.1//EN" "http://www.w3.org/Graphics/SVG/1.1/DTD/svg11.dtd">
<svg width="100%" height="100%" viewBox="0 0 1826 309" version="1.1" xmlns="http://www.w3.org/2000/svg" xmlns:xlink="http://www.w3.org/1999/xlink" xml:space="preserve" xmlns:serif="http://www.serif.com/" style="fill-rule:evenodd;clip-rule:evenodd;stroke-linejoin:round;stroke-miterlimit:2;">
    <rect id="Logotext-Inline-Logotext-Inline-Dark" serif:id="Logotext/Inline/Logotext Inline Dark" x="0" y="0.645" width="1825.65" height="308.125" style="fill:none;"/>
    <g id="Logo-Dark" serif:id="Logo Dark">
        <path id="Path" d="M151.187,262.757L162.279,272.206C155.706,283.983 148.174,293.021 139.683,299.321C131.193,305.62 120.1,308.77 106.406,308.77C94.629,308.77 83.468,306.373 72.923,301.58C62.378,296.787 53.751,289.324 47.04,279.19C40.33,269.056 36.975,256.32 36.975,240.982L36.975,125.949L32.867,121.841L0,121.841L0,107.462C20.542,103.353 38.344,94.452 53.408,80.757C68.472,67.063 78.058,49.945 82.167,29.403L96.546,29.403L96.546,107.462L158.171,107.462L158.171,121.841L99.832,121.841L96.546,125.949L96.546,251.664C96.546,260.429 98.532,267.687 102.503,273.438C106.474,279.19 112.157,282.066 119.552,282.066C124.209,282.066 129.276,280.628 134.753,277.752C140.231,274.876 145.709,269.878 151.187,262.757Z" style="fill:rgb(246,242,223);fill-rule:nonzero;"/>
        <path id="Path1" serif:id="Path" d="M401.116,107.462L478.763,107.462L478.763,121.841L454.113,121.841L392.899,304.662L366.195,304.662L312.787,173.195L310.732,173.195L257.324,304.662L230.62,304.662L156.67,121.841L135.718,121.841L135.718,107.462L249.107,107.462L249.107,121.841L228.566,121.841L224.457,125.949L265.952,230.712L268.006,230.712L302.105,148.134L291.423,121.841L273.758,121.841L273.758,107.462L376.466,107.462L376.466,121.841L360.032,121.841L355.924,125.949L397.008,230.712L399.062,230.712L433.983,125.949L429.874,121.841L401.116,121.841L401.116,107.462Z" style="fill:rgb(246,242,223);fill-rule:nonzero;"/>
        <path id="Shape" d="M563.127,103.353C583.394,103.353 601.403,107.393 617.151,115.473C632.9,123.553 645.293,135.261 654.332,150.599C663.37,165.937 667.889,184.424 667.889,206.062C667.889,227.699 663.37,246.186 654.332,261.524C645.293,276.862 632.9,288.571 617.151,296.65C601.403,304.73 583.394,308.77 563.127,308.77C542.859,308.77 524.851,304.73 509.102,296.65C493.353,288.571 480.96,276.862 471.922,261.524C462.883,246.186 458.364,227.699 458.364,206.062C458.364,184.424 462.883,165.937 471.922,150.599C480.96,135.261 493.353,123.553 509.102,115.473C524.851,107.393 542.859,103.353 563.127,103.353ZM565.181,294.391C574.767,294.391 582.23,290.351 587.571,282.271C592.912,274.191 596.678,263.852 598.869,251.253C601.06,238.654 602.156,225.782 602.156,212.635C602.156,191.272 600.102,173.606 595.993,159.637C591.885,145.669 586.681,135.193 580.382,128.209C574.082,121.225 567.646,117.732 561.072,117.732C551.76,117.732 544.365,121.772 538.887,129.852C533.41,137.932 529.575,148.203 527.384,160.665C525.193,173.126 524.097,186.068 524.097,199.488C524.097,220.578 526.152,238.175 530.26,252.28C534.368,266.386 539.641,276.93 546.077,283.915C552.513,290.899 558.881,294.391 565.181,294.391Z" style="fill:rgb(246,242,223);fill-rule:nonzero;"/>
        <path id="Path2" serif:id="Path" d="M814.288,262.757L825.381,272.206C818.807,283.983 811.276,293.021 802.785,299.321C794.294,305.62 783.202,308.77 769.507,308.77C757.73,308.77 746.569,306.373 736.025,301.58C725.48,296.787 716.852,289.324 710.142,279.19C703.432,269.056 700.077,256.32 700.077,240.982L700.077,125.949L695.968,121.841L663.102,121.841L663.102,107.462C683.643,103.353 701.446,94.452 716.51,80.757C731.574,67.063 741.16,49.945 745.268,29.403L759.647,29.403L759.647,107.462L821.272,107.462L821.272,121.841L762.934,121.841L759.647,125.949L759.647,251.664C759.647,260.429 761.633,267.687 765.605,273.438C769.576,279.19 775.259,282.066 782.654,282.066C787.31,282.066 792.377,280.628 797.855,277.752C803.333,274.876 808.811,269.878 814.288,262.757Z" style="fill:rgb(246,242,223);fill-rule:nonzero;"/>
        <path id="Path3" serif:id="Path" d="M1064.22,107.462L1141.87,107.462L1141.87,121.841L1117.22,121.841L1056,304.662L1029.3,304.662L975.891,173.195L973.837,173.195L920.429,304.662L893.725,304.662L819.775,121.841L798.822,121.841L798.822,107.462L912.212,107.462L912.212,121.841L891.67,121.841L887.562,125.949L929.056,230.712L931.11,230.712L965.21,148.134L954.528,121.841L936.862,121.841L936.862,107.462L1039.57,107.462L1039.57,121.841L1023.14,121.841L1019.03,125.949L1060.11,230.712L1062.17,230.712L1097.09,125.949L1092.98,121.841L1064.22,121.841L1064.22,107.462Z" style="fill:rgb(246,242,223);fill-rule:nonzero;"/>
        <path id="Path4" serif:id="Path" d="M1241.02,288.228C1254.71,288.228 1267.11,284.942 1278.2,278.368C1289.29,271.795 1298.54,264.537 1305.93,256.594L1317.02,266.043C1311.27,272.89 1304.63,279.601 1297.1,286.174C1289.57,292.747 1280.19,298.157 1268.96,302.402C1257.73,306.647 1243.49,308.77 1226.23,308.77C1207.33,308.77 1189.94,304.73 1174.05,296.65C1158.17,288.571 1145.43,276.862 1135.85,261.524C1126.26,246.186 1121.47,227.699 1121.47,206.062C1121.47,184.424 1126.26,165.937 1135.85,150.599C1145.43,135.261 1158.17,123.553 1174.05,115.473C1189.94,107.393 1207.33,103.353 1226.23,103.353C1244.03,103.353 1259.92,106.777 1273.89,113.624C1287.86,120.471 1298.88,131.153 1306.96,145.669C1315.04,160.185 1319.08,178.947 1319.08,201.953L1172.82,201.953L1172.82,187.574L1255.4,187.574C1254.3,163.746 1251.09,146.148 1245.75,134.782C1240.4,123.416 1232.53,117.732 1222.12,117.732C1214.73,117.732 1208.43,121.361 1203.22,128.62C1198.02,135.878 1194.05,146.148 1191.31,159.432C1188.57,172.716 1187.2,188.259 1187.2,206.062C1187.2,223.59 1189.19,238.449 1193.16,250.637C1197.13,262.825 1203.09,272.137 1211.03,278.574C1218.97,285.01 1228.97,288.228 1241.02,288.228Z" style="fill:rgb(246,242,223);fill-rule:nonzero;"/>
        <path id="Path5" serif:id="Path" d="M1319.63,304.662L1319.63,290.282L1340.17,290.282L1344.28,286.174L1344.28,23.241L1340.17,19.132L1319.63,19.132L1319.63,4.753C1326.75,4.753 1335.24,4.685 1345.1,4.548C1354.96,4.411 1364.75,4 1374.48,3.315C1384.2,2.631 1392.62,1.74 1399.74,0.645L1403.85,4.753L1403.85,286.174L1407.96,290.282L1428.5,290.282L1428.5,304.662L1319.63,304.662Z" style="fill:rgb(246,242,223);fill-rule:nonzero;"/>
        <path id="Path6" serif:id="Path" d="M1568.33,107.462L1645.98,107.462L1645.98,121.841L1621.33,121.841L1546.56,304.662L1519.85,304.662L1433.99,121.841L1413.44,121.841L1413.44,107.462L1526.42,107.462L1526.42,121.841L1505.88,121.841L1501.78,125.949L1552.75,238.928L1554.77,238.928L1601.2,125.949L1597.09,121.841L1568.33,121.841L1568.33,107.462Z" style="fill:rgb(246,242,223);fill-rule:nonzero;"/>
        <path id="Path7" serif:id="Path" d="M1747.59,288.228C1761.29,288.228 1773.68,284.942 1784.77,278.368C1795.86,271.795 1805.11,264.537 1812.5,256.594L1823.6,266.043C1817.84,272.89 1811.2,279.601 1803.67,286.174C1796.14,292.747 1786.76,298.157 1775.53,302.402C1764.3,306.647 1750.06,308.77 1732.8,308.77C1713.9,308.77 1696.51,304.73 1680.62,296.65C1664.74,288.571 1652,276.862 1642.42,261.524C1632.83,246.186 1628.04,227.699 1628.04,206.062C1628.04,184.424 1632.83,165.937 1642.42,150.599C1652,135.261 1664.74,123.553 1680.62,115.473C1696.51,107.393 1713.9,103.353 1732.8,103.353C1750.6,103.353 1766.49,106.777 1780.46,113.624C1794.42,120.471 1805.45,131.153 1813.53,145.669C1821.61,160.185 1825.65,178.947 1825.65,201.953L1679.39,201.953L1679.39,187.574L1761.97,187.574C1760.87,163.746 1757.66,146.148 1752.32,134.782C1746.97,123.416 1739.1,117.732 1728.69,117.732C1721.3,117.732 1715,121.361 1709.79,128.62C1704.59,135.878 1700.62,146.148 1697.88,159.432C1695.14,172.716 1693.77,188.259 1693.77,206.062C1693.77,223.59 1695.76,238.449 1699.73,250.637C1703.7,262.825 1709.66,272.137 1717.6,278.574C1725.54,285.01 1735.54,288.228 1747.59,288.228Z" style="fill:rgb(246,242,223);fill-rule:nonzero;"/>
    </g>
</svg>
