<?xml version="1.0" encoding="UTF-8" standalone="no"?><!DOCTYPE svg PUBLIC "-//W3C//DTD SVG 1.1//EN" "http://www.w3.org/Graphics/SVG/1.1/DTD/svg11.dtd"><svg width="100%" height="100%" viewBox="0 0 1826 309" version="1.1" xmlns="http://www.w3.org/2000/svg" xmlns:xlink="http://www.w3.org/1999/xlink" xml:space="preserve" xmlns:serif="http://www.serif.com/" style="fill-rule:evenodd;clip-rule:evenodd;stroke-linejoin:round;stroke-miterlimit:2;"><rect id="Logotext-Inline-Logotext-Inline-Dark" serif:id="Logotext/Inline/Logotext Inline Dark" x="0" y="0.645" width="1825.65" height="308.125" style="fill:none;"/><g id="Logo-Dark" serif:id="Logo Dark"><path id="Path" d="M151.187,262.757l11.092,9.449c-6.573,11.777 -14.105,20.815 -22.596,27.115c-8.49,6.299 -19.583,9.449 -33.277,9.449c-11.777,-0 -22.938,-2.397 -33.483,-7.19c-10.545,-4.793 -19.172,-12.256 -25.883,-22.39c-6.71,-10.134 -10.065,-22.87 -10.065,-38.208l-0,-115.033l-4.108,-4.108l-32.867,-0l-0,-14.379c20.542,-4.109 38.344,-13.01 53.408,-26.705c15.064,-13.694 24.65,-30.812 28.759,-51.354l14.379,0l-0,78.059l61.625,-0l-0,14.379l-58.339,-0l-3.286,4.108l-0,125.715c-0,8.765 1.986,16.023 5.957,21.774c3.971,5.752 9.654,8.628 17.049,8.628c4.657,-0 9.724,-1.438 15.201,-4.314c5.478,-2.876 10.956,-7.874 16.434,-14.995Z" style="fill:#003049;fill-rule:nonzero;"/><path id="Path1" serif:id="Path" d="M401.116,107.462l77.647,-0l0,14.379l-24.65,-0l-61.214,182.821l-26.704,-0l-53.408,-131.467l-2.055,-0l-53.408,131.467l-26.704,-0l-73.95,-182.821l-20.952,-0l-0,-14.379l113.389,-0l0,14.379l-20.541,-0l-4.109,4.108l41.495,104.763l2.054,-0l34.099,-82.578l-10.682,-26.293l-17.665,-0l-0,-14.379l102.708,-0l-0,14.379l-16.434,-0l-4.108,4.108l41.084,104.763l2.054,-0l34.921,-104.763l-4.109,-4.108l-28.758,-0l-0,-14.379Z" style="fill:#003049;fill-rule:nonzero;"/><path id="Shape" d="M563.127,103.353c20.267,0 38.276,4.04 54.024,12.12c15.749,8.08 28.142,19.788 37.181,35.126c9.038,15.338 13.557,33.825 13.557,55.463c0,21.637 -4.519,40.124 -13.557,55.462c-9.039,15.338 -21.432,27.047 -37.181,35.126c-15.748,8.08 -33.757,12.12 -54.024,12.12c-20.268,-0 -38.276,-4.04 -54.025,-12.12c-15.749,-8.079 -28.142,-19.788 -37.18,-35.126c-9.039,-15.338 -13.558,-33.825 -13.558,-55.462c0,-21.638 4.519,-40.125 13.558,-55.463c9.038,-15.338 21.431,-27.046 37.18,-35.126c15.749,-8.08 33.757,-12.12 54.025,-12.12Zm2.054,191.038c9.586,-0 17.049,-4.04 22.39,-12.12c5.341,-8.08 9.107,-18.419 11.298,-31.018c2.191,-12.599 3.287,-25.471 3.287,-38.618c-0,-21.363 -2.054,-39.029 -6.163,-52.998c-4.108,-13.968 -9.312,-24.444 -15.611,-31.428c-6.3,-6.984 -12.736,-10.477 -19.31,-10.477c-9.312,0 -16.707,4.04 -22.185,12.12c-5.477,8.08 -9.312,18.351 -11.503,30.813c-2.191,12.461 -3.287,25.403 -3.287,38.823c0,21.09 2.055,38.687 6.163,52.792c4.108,14.106 9.381,24.65 15.817,31.635c6.436,6.984 12.804,10.476 19.104,10.476Z" style="fill:#003049;fill-rule:nonzero;"/><path id="Path2" serif:id="Path" d="M814.288,262.757l11.093,9.449c-6.574,11.777 -14.105,20.815 -22.596,27.115c-8.491,6.299 -19.583,9.449 -33.278,9.449c-11.777,-0 -22.938,-2.397 -33.482,-7.19c-10.545,-4.793 -19.173,-12.256 -25.883,-22.39c-6.71,-10.134 -10.065,-22.87 -10.065,-38.208l-0,-115.033l-4.109,-4.108l-32.866,-0l-0,-14.379c20.541,-4.109 38.344,-13.01 53.408,-26.705c15.064,-13.694 24.65,-30.812 28.758,-51.354l14.379,0l0,78.059l61.625,-0l0,14.379l-58.338,-0l-3.287,4.108l0,125.715c0,8.765 1.986,16.023 5.958,21.774c3.971,5.752 9.654,8.628 17.049,8.628c4.656,-0 9.723,-1.438 15.201,-4.314c5.478,-2.876 10.956,-7.874 16.433,-14.995Z" style="fill:#003049;fill-rule:nonzero;"/><path id="Path3" serif:id="Path" d="M1064.22,107.462l77.648,-0l-0,14.379l-24.65,-0l-61.214,182.821l-26.704,-0l-53.409,-131.467l-2.054,-0l-53.408,131.467l-26.704,-0l-73.95,-182.821l-20.953,-0l0,-14.379l113.39,-0l0,14.379l-20.542,-0l-4.108,4.108l41.494,104.763l2.054,-0l34.1,-82.578l-10.682,-26.293l-17.666,-0l0,-14.379l102.708,-0l0,14.379l-16.433,-0l-4.108,4.108l41.083,104.763l2.054,-0l34.921,-104.763l-4.108,-4.108l-28.759,-0l0,-14.379Z" style="fill:#003049;fill-rule:nonzero;"/><path id="Path4" serif:id="Path" d="M1241.02,288.228c13.695,0 26.088,-3.286 37.181,-9.86c11.092,-6.573 20.336,-13.831 27.731,-21.774l11.092,9.449c-5.751,6.847 -12.393,13.558 -19.925,20.131c-7.532,6.573 -16.913,11.983 -28.142,16.228c-11.229,4.245 -25.472,6.368 -42.727,6.368c-18.898,-0 -36.29,-4.04 -52.176,-12.12c-15.885,-8.079 -28.621,-19.788 -38.207,-35.126c-9.586,-15.338 -14.379,-33.825 -14.379,-55.462c-0,-21.638 4.793,-40.125 14.379,-55.463c9.586,-15.338 22.322,-27.046 38.207,-35.126c15.886,-8.08 33.278,-12.12 52.176,-12.12c17.803,0 33.689,3.424 47.657,10.271c13.968,6.847 24.992,17.529 33.072,32.045c8.08,14.516 12.12,33.278 12.12,56.284l-146.257,0l0,-14.379l82.577,0c-1.095,-23.828 -4.313,-41.426 -9.654,-52.792c-5.341,-11.366 -13.215,-17.05 -23.623,-17.05c-7.395,0 -13.694,3.629 -18.898,10.888c-5.204,7.258 -9.176,17.528 -11.915,30.812c-2.738,13.284 -4.108,28.827 -4.108,46.63c0,17.528 1.986,32.387 5.957,44.575c3.972,12.188 9.929,21.5 17.871,27.937c7.943,6.436 17.94,9.654 29.991,9.654Z" style="fill:#003049;fill-rule:nonzero;"/><path id="Path5" serif:id="Path" d="M1319.63,304.662l-0,-14.38l20.542,0l4.108,-4.108l-0,-262.933l-4.108,-4.109l-20.542,0l-0,-14.379c7.121,0 15.612,-0.068 25.472,-0.205c9.86,-0.137 19.651,-0.548 29.374,-1.233c9.723,-0.684 18.145,-1.575 25.266,-2.67l4.109,4.108l-0,281.421l4.108,4.108l20.542,0l-0,14.38l-108.871,-0Z" style="fill:#003049;fill-rule:nonzero;"/><path id="Path6" serif:id="Path" d="M1568.33,107.462l77.647,-0l0,14.379l-24.65,-0l-74.772,182.821l-26.704,-0l-85.864,-182.821l-20.542,-0l0,-14.379l112.98,-0l-0,14.379l-20.542,-0l-4.108,4.108l50.975,112.979l2.022,0l46.424,-112.979l-4.108,-4.108l-28.758,-0l-0,-14.379Z" style="fill:#003049;fill-rule:nonzero;"/><path id="Path7" serif:id="Path" d="M1747.59,288.228c13.695,0 26.088,-3.286 37.181,-9.86c11.092,-6.573 20.336,-13.831 27.731,-21.774l11.093,9.449c-5.752,6.847 -12.394,13.558 -19.926,20.131c-7.532,6.573 -16.912,11.983 -28.142,16.228c-11.229,4.245 -25.472,6.368 -42.727,6.368c-18.898,-0 -36.29,-4.04 -52.175,-12.12c-15.886,-8.079 -28.622,-19.788 -38.208,-35.126c-9.586,-15.338 -14.379,-33.825 -14.379,-55.462c-0,-21.638 4.793,-40.125 14.379,-55.463c9.586,-15.338 22.322,-27.046 38.208,-35.126c15.885,-8.08 33.277,-12.12 52.175,-12.12c17.803,0 33.689,3.424 47.657,10.271c13.968,6.847 24.993,17.529 33.072,32.045c8.08,14.516 12.12,33.278 12.12,56.284l-146.257,0l0,-14.379l82.578,0c-1.096,-23.828 -4.314,-41.426 -9.655,-52.792c-5.341,-11.366 -13.215,-17.05 -23.623,-17.05c-7.395,0 -13.694,3.629 -18.898,10.888c-5.204,7.258 -9.175,17.528 -11.914,30.812c-2.739,13.284 -4.109,28.827 -4.109,46.63c0,17.528 1.986,32.387 5.957,44.575c3.972,12.188 9.929,21.5 17.872,27.937c7.942,6.436 17.939,9.654 29.99,9.654Z" style="fill:#003049;fill-rule:nonzero;"/></g></svg>