<?xml version="1.0" encoding="UTF-8" standalone="no"?><!DOCTYPE svg PUBLIC "-//W3C//DTD SVG 1.1//EN" "http://www.w3.org/Graphics/SVG/1.1/DTD/svg11.dtd"><svg width="100%" height="100%" viewBox="0 0 1080 1081" version="1.1" xmlns="http://www.w3.org/2000/svg" xmlns:xlink="http://www.w3.org/1999/xlink" xml:space="preserve" xmlns:serif="http://www.serif.com/" style="fill-rule:evenodd;clip-rule:evenodd;stroke-linejoin:round;stroke-miterlimit:2;"><rect id="Logo-Logo" serif:id="Logo/Logo" x="0" y="0.378" width="1080" height="1080" style="fill:#f6f2df;"/><g id="Logotext-Split" serif:id="Logotext Split"><path id="Path" d="M193.64,375.383l8.933,7.609c-5.294,9.485 -11.36,16.764 -18.197,21.837c-6.838,5.073 -15.771,7.609 -26.799,7.609c-9.485,0 -18.473,-1.93 -26.965,-5.79c-8.492,-3.86 -15.44,-9.87 -20.844,-18.031c-5.404,-8.161 -8.106,-18.418 -8.106,-30.77l0,-92.639l-3.308,-3.308l-26.469,-0l0,-11.58c16.543,-3.309 30.88,-10.477 43.011,-21.506c12.132,-11.028 19.852,-24.814 23.16,-41.356l11.58,-0l0,62.862l49.628,-0l0,11.58l-46.981,-0l-2.647,3.308l0,101.242c0,7.058 1.599,12.903 4.798,17.535c3.198,4.632 7.775,6.948 13.73,6.948c3.75,-0 7.83,-1.158 12.242,-3.474c4.411,-2.316 8.822,-6.341 13.234,-12.076Z" style="fill:#003049;fill-rule:nonzero;"/><path id="Path1" serif:id="Path" d="M394.914,250.32l62.531,-0l0,11.58l-19.851,-0l-49.297,147.23l-21.506,-0l-43.011,-105.873l-1.654,-0l-43.011,105.873l-21.506,-0l-59.553,-147.23l-16.874,-0l0,-11.58l91.316,-0l-0,11.58l-16.543,-0l-3.308,3.308l33.416,84.368l1.654,0l27.461,-66.502l-8.602,-21.174l-14.227,-0l-0,-11.58l82.714,-0l-0,11.58l-13.235,-0l-3.308,3.308l33.085,84.368l1.654,0l28.123,-84.368l-3.308,-3.308l-23.16,-0l-0,-11.58Z" style="fill:#003049;fill-rule:nonzero;"/><path id="Shape" d="M525.385,247.011c16.322,0 30.825,3.254 43.507,9.761c12.683,6.506 22.664,15.936 29.943,28.288c7.278,12.351 10.918,27.24 10.918,44.665c-0,17.425 -3.64,32.313 -10.918,44.665c-7.279,12.352 -17.26,21.781 -29.943,28.288c-12.682,6.507 -27.185,9.76 -43.507,9.76c-16.322,0 -30.825,-3.253 -43.507,-9.76c-12.683,-6.507 -22.664,-15.936 -29.943,-28.288c-7.278,-12.352 -10.918,-27.24 -10.918,-44.665c0,-17.425 3.64,-32.314 10.918,-44.665c7.279,-12.352 17.26,-21.782 29.943,-28.288c12.682,-6.507 27.185,-9.761 43.507,-9.761Zm1.654,153.847c7.72,0 13.731,-3.253 18.032,-9.76c4.301,-6.507 7.334,-14.833 9.098,-24.979c1.765,-10.146 2.647,-20.513 2.647,-31.1c0,-17.205 -1.654,-31.432 -4.963,-42.681c-3.308,-11.249 -7.499,-19.685 -12.572,-25.31c-5.073,-5.625 -10.257,-8.437 -15.55,-8.437c-7.5,0 -13.455,3.254 -17.866,9.76c-4.412,6.507 -7.5,14.779 -9.264,24.814c-1.765,10.036 -2.647,20.458 -2.647,31.266c-0,16.984 1.654,31.156 4.963,42.515c3.308,11.359 7.554,19.851 12.738,25.476c5.183,5.624 10.311,8.436 15.384,8.436Z" style="fill:#003049;fill-rule:nonzero;"/><path id="Path2" serif:id="Path" d="M193.64,623.322l8.933,7.61c-5.294,9.484 -11.36,16.763 -18.197,21.836c-6.838,5.073 -15.771,7.61 -26.799,7.61c-9.485,-0 -18.473,-1.93 -26.965,-5.79c-8.492,-3.86 -15.44,-9.871 -20.844,-18.032c-5.404,-8.161 -8.106,-18.417 -8.106,-30.769l0,-92.639l-3.308,-3.309l-26.469,0l0,-11.58c16.543,-3.308 30.88,-10.477 43.011,-21.505c12.132,-11.029 19.852,-24.814 23.16,-41.357l11.58,-0l0,62.862l49.628,0l0,11.58l-46.981,0l-2.647,3.309l0,101.241c0,7.058 1.599,12.903 4.798,17.535c3.198,4.632 7.775,6.948 13.73,6.948c3.75,0 7.83,-1.158 12.242,-3.474c4.411,-2.316 8.822,-6.341 13.234,-12.076Z" style="fill:#003049;fill-rule:nonzero;"/><path id="Path3" serif:id="Path" d="M394.914,498.259l62.531,0l0,11.58l-19.851,0l-49.297,147.23l-21.506,0l-43.011,-105.873l-1.654,-0l-43.011,105.873l-21.506,0l-59.553,-147.23l-16.874,0l0,-11.58l91.316,0l-0,11.58l-16.543,0l-3.308,3.309l33.416,84.367l1.654,0l27.461,-66.501l-8.602,-21.175l-14.227,0l-0,-11.58l82.714,0l-0,11.58l-13.235,0l-3.308,3.309l33.085,84.367l1.654,0l28.123,-84.367l-3.308,-3.309l-23.16,0l-0,-11.58Z" style="fill:#003049;fill-rule:nonzero;"/><path id="Path4" serif:id="Path" d="M537.296,643.835c11.028,-0 21.009,-2.647 29.942,-7.941c8.933,-5.293 16.377,-11.138 22.333,-17.535l8.933,7.61c-4.632,5.514 -9.981,10.918 -16.047,16.212c-6.065,5.293 -13.62,9.65 -22.663,13.068c-9.043,3.419 -20.513,5.129 -34.409,5.129c-15.219,-0 -29.225,-3.254 -42.018,-9.761c-12.793,-6.506 -23.05,-15.936 -30.77,-28.288c-7.72,-12.351 -11.58,-27.24 -11.58,-44.665c0,-17.425 3.86,-32.313 11.58,-44.665c7.72,-12.352 17.977,-21.781 30.77,-28.288c12.793,-6.507 26.799,-9.76 42.018,-9.76c14.337,-0 27.13,2.757 38.379,8.271c11.249,5.514 20.127,14.116 26.634,25.807c6.507,11.69 9.76,26.799 9.76,45.327l-117.784,-0l0,-11.58l66.502,-0c-0.883,-19.19 -3.474,-33.361 -7.775,-42.515c-4.301,-9.154 -10.643,-13.731 -19.025,-13.731c-5.955,0 -11.028,2.923 -15.219,8.768c-4.191,5.845 -7.389,14.117 -9.595,24.814c-2.205,10.698 -3.308,23.215 -3.308,37.552c-0,14.117 1.599,26.082 4.797,35.898c3.199,9.815 7.996,17.314 14.392,22.498c6.397,5.183 14.448,7.775 24.153,7.775Z" style="fill:#003049;fill-rule:nonzero;"/><path id="Path5" serif:id="Path" d="M600.604,657.069l-0,-11.58l16.542,0l3.309,-3.308l-0,-211.747l-3.309,-3.309l-16.542,0l-0,-11.579c5.734,-0 12.572,-0.056 20.513,-0.166c7.94,-0.11 15.825,-0.441 23.656,-0.992c7.83,-0.552 14.612,-1.269 20.347,-2.151l3.309,3.309l-0,226.635l3.308,3.308l16.543,0l0,11.58l-87.676,0Z" style="fill:#003049;fill-rule:nonzero;"/><path id="Path6" serif:id="Path" d="M800.885,498.259l62.532,0l-0,11.58l-19.852,0l-60.215,147.23l-21.506,0l-69.148,-147.23l-16.543,0l0,-11.58l90.985,0l0,11.58l-16.543,0l-3.308,3.309l41.052,90.984l1.628,0l37.386,-90.984l-3.308,-3.309l-23.16,0l0,-11.58Z" style="fill:#003049;fill-rule:nonzero;"/><path id="Path7" serif:id="Path" d="M945.252,643.835c11.029,-0 21.01,-2.647 29.943,-7.941c8.933,-5.293 16.377,-11.138 22.332,-17.535l8.933,7.61c-4.632,5.514 -9.98,10.918 -16.046,16.212c-6.066,5.293 -13.62,9.65 -22.664,13.068c-9.043,3.419 -20.513,5.129 -34.408,5.129c-15.22,-0 -29.226,-3.254 -42.019,-9.761c-12.793,-6.506 -23.049,-15.936 -30.769,-28.288c-7.72,-12.351 -11.58,-27.24 -11.58,-44.665c-0,-17.425 3.86,-32.313 11.58,-44.665c7.72,-12.352 17.976,-21.781 30.769,-28.288c12.793,-6.507 26.799,-9.76 42.019,-9.76c14.337,-0 27.13,2.757 38.379,8.271c11.249,5.514 20.127,14.116 26.633,25.807c6.507,11.69 9.761,26.799 9.761,45.327l-117.784,-0l-0,-11.58l66.501,-0c-0.882,-19.19 -3.474,-33.361 -7.775,-42.515c-4.301,-9.154 -10.642,-13.731 -19.024,-13.731c-5.955,0 -11.028,2.923 -15.219,8.768c-4.191,5.845 -7.389,14.117 -9.595,24.814c-2.206,10.698 -3.309,23.215 -3.309,37.552c0,14.117 1.6,26.082 4.798,35.898c3.198,9.815 7.995,17.314 14.392,22.498c6.396,5.183 14.447,7.775 24.152,7.775Z" style="fill:#003049;fill-rule:nonzero;"/></g><rect x="0" y="690.378" width="1080" height="390" style="fill:url(#_Linear1);"/><defs><linearGradient id="_Linear1" x1="0" y1="0" x2="1" y2="0" gradientUnits="userSpaceOnUse" gradientTransform="matrix(2.38806e-14,390,-390,2.38806e-14,540,690.378)"><stop offset="0" style="stop-color:#002e47;stop-opacity:1"/><stop offset="0.15" style="stop-color:#2f3a6f;stop-opacity:1"/><stop offset="0.22" style="stop-color:#763078;stop-opacity:1"/><stop offset="0.28" style="stop-color:#b61161;stop-opacity:1"/><stop offset="0.33" style="stop-color:#d72828;stop-opacity:1"/><stop offset="0.37" style="stop-color:#e14323;stop-opacity:1"/><stop offset="0.42" style="stop-color:#ea551a;stop-opacity:1"/><stop offset="0.46" style="stop-color:#f1690e;stop-opacity:1"/><stop offset="0.5" style="stop-color:#f57e00;stop-opacity:1"/><stop offset="0.54" style="stop-color:#f89216;stop-opacity:1"/><stop offset="0.58" style="stop-color:#faa329;stop-opacity:1"/><stop offset="0.63" style="stop-color:#fbb037;stop-opacity:1"/><stop offset="0.67" style="stop-color:#fcc14a;stop-opacity:1"/><stop offset="0.72" style="stop-color:#f8cc6d;stop-opacity:1"/><stop offset="0.78" style="stop-color:#f6db93;stop-opacity:1"/><stop offset="0.85" style="stop-color:#f4e6b8;stop-opacity:1"/><stop offset="1" style="stop-color:#f6f2df;stop-opacity:1"/></linearGradient></defs></svg>