<?xml version="1.0" encoding="UTF-8" standalone="no"?><!DOCTYPE svg PUBLIC "-//W3C//DTD SVG 1.1//EN" "http://www.w3.org/Graphics/SVG/1.1/DTD/svg11.dtd"><svg width="100%" height="100%" viewBox="0 0 1081 1081" version="1.1" xmlns="http://www.w3.org/2000/svg" xmlns:xlink="http://www.w3.org/1999/xlink" xml:space="preserve" xmlns:serif="http://www.serif.com/" style="fill-rule:evenodd;clip-rule:evenodd;stroke-linejoin:round;stroke-miterlimit:2;"><rect id="Logo-Rounded" serif:id="Logo/Rounded" x="0.272" y="0.049" width="1080" height="1080" style="fill:none;"/><clipPath id="_clip1"><rect x="0.272" y="0.049" width="1080" height="1080"/></clipPath><g clip-path="url(#_clip1)"><g><clipPath id="_clip2"><path d="M1080.27,109.076c-0,-60.174 -48.854,-109.027 -109.028,-109.027l-861.945,-0c-60.174,-0 -109.027,48.853 -109.027,109.027l-0,861.945c-0,60.174 48.853,109.028 109.027,109.028l861.945,-0c60.174,-0 109.028,-48.854 109.028,-109.028l-0,-861.945Z"/></clipPath><g clip-path="url(#_clip2)"><rect x="0.272" y="0.049" width="1082.28" height="1080" style="fill:#f6f2df;"/><g id="Logotext-Split" serif:id="Logotext Split"><path id="Path" d="M194.319,375.054l8.952,7.609c-5.304,9.485 -11.383,16.764 -18.235,21.837c-6.852,5.073 -15.804,7.609 -26.856,7.609c-9.504,0 -18.511,-1.93 -27.021,-5.79c-8.51,-3.86 -15.472,-9.87 -20.888,-18.031c-5.415,-8.161 -8.123,-18.418 -8.123,-30.77l0,-92.639l-3.315,-3.308l-26.524,-0l-0,-11.58c16.577,-3.309 30.944,-10.477 43.101,-21.506c12.157,-11.028 19.893,-24.814 23.209,-41.356l11.604,-0l0,62.862l49.733,-0l-0,11.58l-47.08,-0l-2.653,3.308l0,101.242c0,7.058 1.603,12.903 4.808,17.535c3.205,4.632 7.791,6.948 13.759,6.948c3.758,-0 7.847,-1.158 12.267,-3.474c4.421,-2.316 8.842,-6.342 13.262,-12.076Z" style="fill:#003049;fill-rule:nonzero;"/><path id="Path1" serif:id="Path" d="M396.018,249.991l62.663,-0l-0,11.58l-19.893,-0l-49.401,147.23l-21.551,-0l-43.102,-105.874l-1.658,0l-43.101,105.874l-21.551,-0l-59.679,-147.23l-16.909,-0l-0,-11.58l91.508,-0l-0,11.58l-16.578,-0l-3.315,3.308l33.486,84.368l1.658,0l27.519,-66.502l-8.62,-21.174l-14.257,-0l-0,-11.58l82.888,-0l-0,11.58l-13.262,-0l-3.316,3.308l33.155,84.368l1.658,0l28.182,-84.368l-3.316,-3.308l-23.208,-0l-0,-11.58Z" style="fill:#003049;fill-rule:nonzero;"/><path id="Shape" d="M526.764,246.682c16.357,0 30.89,3.254 43.599,9.76c12.71,6.507 22.711,15.937 30.005,28.288c7.295,12.352 10.942,27.241 10.942,44.666c-0,17.425 -3.647,32.313 -10.942,44.665c-7.294,12.352 -17.295,21.781 -30.005,28.288c-12.709,6.507 -27.242,9.76 -43.599,9.76c-16.357,0 -30.89,-3.253 -43.599,-9.76c-12.709,-6.507 -22.711,-15.936 -30.005,-28.288c-7.295,-12.352 -10.942,-27.24 -10.942,-44.665c0,-17.425 3.647,-32.314 10.942,-44.666c7.294,-12.351 17.296,-21.781 30.005,-28.288c12.709,-6.506 27.242,-9.76 43.599,-9.76Zm1.658,153.847c7.736,0 13.759,-3.253 18.069,-9.76c4.311,-6.507 7.35,-14.833 9.118,-24.979c1.768,-10.146 2.652,-20.513 2.652,-31.101c0,-17.204 -1.657,-31.431 -4.973,-42.68c-3.315,-11.249 -7.515,-19.686 -12.599,-25.31c-5.084,-5.625 -10.278,-8.437 -15.583,-8.437c-7.515,0 -13.483,3.254 -17.904,9.76c-4.42,6.507 -7.515,14.779 -9.283,24.814c-1.768,10.036 -2.652,20.458 -2.652,31.266c-0,16.984 1.657,31.156 4.973,42.515c3.315,11.359 7.57,19.851 12.765,25.476c5.194,5.624 10.333,8.436 15.417,8.436Z" style="fill:#003049;fill-rule:nonzero;"/><path id="Path2" serif:id="Path" d="M194.319,622.993l8.952,7.61c-5.304,9.484 -11.383,16.763 -18.235,21.836c-6.852,5.073 -15.804,7.61 -26.856,7.61c-9.504,-0 -18.511,-1.93 -27.021,-5.79c-8.51,-3.86 -15.472,-9.871 -20.888,-18.032c-5.415,-8.161 -8.123,-18.417 -8.123,-30.769l0,-92.64l-3.315,-3.308l-26.524,-0l-0,-11.58c16.577,-3.308 30.944,-10.477 43.101,-21.505c12.157,-11.029 19.893,-24.815 23.209,-41.357l11.604,-0l0,62.862l49.733,0l-0,11.58l-47.08,-0l-2.653,3.308l0,101.242c0,7.058 1.603,12.903 4.808,17.535c3.205,4.632 7.791,6.948 13.759,6.948c3.758,0 7.847,-1.158 12.267,-3.474c4.421,-2.316 8.842,-6.341 13.262,-12.076Z" style="fill:#003049;fill-rule:nonzero;"/><path id="Path3" serif:id="Path" d="M396.018,497.93l62.663,0l-0,11.58l-19.893,-0l-49.401,147.23l-21.551,0l-43.102,-105.873l-1.658,-0l-43.101,105.873l-21.551,0l-59.679,-147.23l-16.909,-0l-0,-11.58l91.508,0l-0,11.58l-16.578,-0l-3.315,3.308l33.486,84.368l1.658,0l27.519,-66.501l-8.62,-21.175l-14.257,-0l-0,-11.58l82.888,0l-0,11.58l-13.262,-0l-3.316,3.308l33.155,84.368l1.658,0l28.182,-84.368l-3.316,-3.308l-23.208,-0l-0,-11.58Z" style="fill:#003049;fill-rule:nonzero;"/><path id="Path4" serif:id="Path" d="M538.7,643.506c11.052,-0 21.053,-2.647 30.005,-7.941c8.952,-5.293 16.412,-11.138 22.38,-17.535l8.952,7.61c-4.642,5.514 -10.002,10.918 -16.08,16.212c-6.079,5.293 -13.649,9.649 -22.712,13.068c-9.062,3.419 -20.556,5.129 -34.481,5.129c-15.251,-0 -29.287,-3.254 -42.107,-9.761c-12.82,-6.506 -23.098,-15.936 -30.834,-28.288c-7.736,-12.352 -11.605,-27.24 -11.605,-44.665c0,-17.425 3.869,-32.313 11.605,-44.665c7.736,-12.352 18.014,-21.782 30.834,-28.288c12.82,-6.507 26.856,-9.76 42.107,-9.76c14.367,-0 27.187,2.757 38.46,8.271c11.273,5.514 20.169,14.116 26.69,25.806c6.52,11.691 9.781,26.8 9.781,45.327l-118.033,0l0,-11.579l66.642,-0c-0.884,-19.19 -3.481,-33.362 -7.791,-42.515c-4.31,-9.154 -10.665,-13.731 -19.064,-13.731c-5.968,0 -11.052,2.923 -15.252,8.768c-4.2,5.845 -7.405,14.116 -9.615,24.814c-2.21,10.698 -3.315,23.215 -3.315,37.552c-0,14.116 1.602,26.082 4.807,35.898c3.205,9.815 8.013,17.314 14.423,22.498c6.41,5.183 14.477,7.775 24.203,7.775Z" style="fill:#003049;fill-rule:nonzero;"/><path id="Path5" serif:id="Path" d="M602.141,656.74l0,-11.58l16.578,0l3.315,-3.308l0,-211.747l-3.315,-3.309l-16.578,0l0,-11.579c5.747,-0 12.599,-0.056 20.556,-0.166c7.958,-0.11 15.86,-0.441 23.706,-0.992c7.847,-0.552 14.644,-1.269 20.391,-2.151l3.315,3.309l0,226.635l3.316,3.308l16.577,0l0,11.58l-87.861,0Z" style="fill:#003049;fill-rule:nonzero;"/><path id="Path6" serif:id="Path" d="M802.845,497.93l62.663,0l0,11.58l-19.893,-0l-60.342,147.23l-21.551,0l-69.294,-147.23l-16.578,-0l-0,-11.58l91.177,0l-0,11.58l-16.578,-0l-3.315,3.308l41.138,90.985l1.632,0l37.465,-90.985l-3.316,-3.308l-23.208,-0l-0,-11.58Z" style="fill:#003049;fill-rule:nonzero;"/><path id="Path7" serif:id="Path" d="M947.516,643.506c11.052,-0 21.054,-2.647 30.006,-7.941c8.952,-5.293 16.411,-11.138 22.379,-17.535l8.952,7.61c-4.641,5.514 -10.001,10.918 -16.08,16.212c-6.078,5.293 -13.649,9.649 -22.711,13.068c-9.063,3.419 -20.556,5.129 -34.482,5.129c-15.251,-0 -29.287,-3.254 -42.107,-9.761c-12.82,-6.506 -23.098,-15.936 -30.834,-28.288c-7.736,-12.352 -11.604,-27.24 -11.604,-44.665c-0,-17.425 3.868,-32.313 11.604,-44.665c7.736,-12.352 18.014,-21.782 30.834,-28.288c12.82,-6.507 26.856,-9.76 42.107,-9.76c14.368,-0 27.188,2.757 38.46,8.271c11.273,5.514 20.17,14.116 26.69,25.806c6.521,11.691 9.781,26.8 9.781,45.327l-118.032,0l-0,-11.579l66.642,-0c-0.885,-19.19 -3.482,-33.362 -7.792,-42.515c-4.31,-9.154 -10.665,-13.731 -19.064,-13.731c-5.968,0 -11.052,2.923 -15.251,8.768c-4.2,5.845 -7.405,14.116 -9.615,24.814c-2.211,10.698 -3.316,23.215 -3.316,37.552c0,14.116 1.603,26.082 4.808,35.898c3.205,9.815 8.012,17.314 14.422,22.498c6.41,5.183 14.478,7.775 24.203,7.775Z" style="fill:#003049;fill-rule:nonzero;"/></g><rect x="0.272" y="690.049" width="1082.28" height="390" style="fill:url(#_Linear3);"/><rect x="0.272" y="0.049" width="1082.28" height="1080" style="fill:none;"/></g></g></g><defs><linearGradient id="_Linear3" x1="0" y1="0" x2="1" y2="0" gradientUnits="userSpaceOnUse" gradientTransform="matrix(2.39309e-14,390,-390.822,2.38806e-14,541.41,690.049)"><stop offset="0" style="stop-color:#002e47;stop-opacity:1"/><stop offset="0.15" style="stop-color:#2f3a6f;stop-opacity:1"/><stop offset="0.22" style="stop-color:#763078;stop-opacity:1"/><stop offset="0.28" style="stop-color:#b61161;stop-opacity:1"/><stop offset="0.33" style="stop-color:#d72828;stop-opacity:1"/><stop offset="0.37" style="stop-color:#e14323;stop-opacity:1"/><stop offset="0.42" style="stop-color:#ea551a;stop-opacity:1"/><stop offset="0.46" style="stop-color:#f1690e;stop-opacity:1"/><stop offset="0.5" style="stop-color:#f57e00;stop-opacity:1"/><stop offset="0.54" style="stop-color:#f89216;stop-opacity:1"/><stop offset="0.58" style="stop-color:#faa329;stop-opacity:1"/><stop offset="0.63" style="stop-color:#fbb037;stop-opacity:1"/><stop offset="0.67" style="stop-color:#fcc14a;stop-opacity:1"/><stop offset="0.72" style="stop-color:#f8cc6d;stop-opacity:1"/><stop offset="0.78" style="stop-color:#f6db93;stop-opacity:1"/><stop offset="0.85" style="stop-color:#f4e6b8;stop-opacity:1"/><stop offset="1" style="stop-color:#f6f2df;stop-opacity:1"/></linearGradient></defs></svg>