<?xml version="1.0" encoding="UTF-8" standalone="no"?><!DOCTYPE svg PUBLIC "-//W3C//DTD SVG 1.1//EN" "http://www.w3.org/Graphics/SVG/1.1/DTD/svg11.dtd"><svg width="100%" height="100%" viewBox="0 0 2401 1261" version="1.1" xmlns="http://www.w3.org/2000/svg" xmlns:xlink="http://www.w3.org/1999/xlink" xml:space="preserve" xmlns:serif="http://www.serif.com/" style="fill-rule:evenodd;clip-rule:evenodd;stroke-linejoin:round;stroke-miterlimit:2;"><rect id="Media-Social-Card" serif:id="Media/Social Card" x="0.622" y="0.378" width="2400" height="1260" style="fill:#f6f2df;"/><clipPath id="_clip1"><rect x="0.622" y="0.378" width="2400" height="1260"/></clipPath><g clip-path="url(#_clip1)"><g id="Logotext-Split" serif:id="Logotext Split"><path id="Path" d="M414.641,476.416l8.732,7.438c-5.175,9.272 -11.104,16.387 -17.788,21.346c-6.684,4.959 -15.417,7.439 -26.197,7.439c-9.272,-0 -18.058,-1.887 -26.359,-5.66c-8.301,-3.773 -15.093,-9.649 -20.376,-17.627c-5.282,-7.977 -7.923,-18.003 -7.923,-30.078l-0,-90.558l-3.235,-3.234l-25.873,0l-0,-11.32c16.171,-3.234 30.186,-10.241 42.044,-21.022c11.859,-10.781 19.406,-24.256 22.64,-40.427l11.32,-0l-0,61.449l48.513,0l-0,11.32l-45.926,0l-2.587,3.234l-0,98.967c-0,6.9 1.563,12.614 4.689,17.142c3.127,4.527 7.601,6.791 13.422,6.791c3.666,0 7.654,-1.132 11.967,-3.396c4.312,-2.263 8.624,-6.198 12.937,-11.804Z" style="fill:#003049;fill-rule:nonzero;"/><path id="Path1" serif:id="Path" d="M611.393,354.162l61.126,0l0,11.32l-19.405,0l-48.19,143.923l-21.022,-0l-42.045,-103.495l-1.617,-0l-42.045,103.495l-21.022,-0l-58.216,-143.923l-16.494,0l-0,-11.32l89.264,0l-0,11.32l-16.171,0l-3.234,3.234l32.665,82.473l1.617,-0l26.844,-65.008l-8.409,-20.699l-13.907,0l0,-11.32l80.855,0l0,11.32l-12.936,0l-3.235,3.234l32.342,82.473l1.618,-0l27.49,-82.473l-3.234,-3.234l-22.639,0l-0,-11.32Z" style="fill:#003049;fill-rule:nonzero;"/><path id="Shape" d="M738.933,350.928c15.955,0 30.132,3.181 42.529,9.541c12.398,6.361 22.155,15.578 29.27,27.653c7.115,12.074 10.673,26.628 10.673,43.662c-0,17.033 -3.558,31.587 -10.673,43.661c-7.115,12.075 -16.872,21.292 -29.27,27.653c-12.397,6.36 -26.574,9.541 -42.529,9.541c-15.956,-0 -30.132,-3.181 -42.53,-9.541c-12.398,-6.361 -22.155,-15.578 -29.27,-27.653c-7.115,-12.074 -10.673,-26.628 -10.673,-43.661c0,-17.034 3.558,-31.588 10.673,-43.662c7.115,-12.075 16.872,-21.292 29.27,-27.653c12.398,-6.36 26.574,-9.541 42.53,-9.541Zm1.617,150.391c7.546,0 13.422,-3.18 17.626,-9.541c4.205,-6.361 7.169,-14.5 8.894,-24.418c1.725,-9.918 2.588,-20.052 2.588,-30.402c-0,-16.818 -1.617,-30.725 -4.852,-41.721c-3.234,-10.996 -7.331,-19.244 -12.29,-24.742c-4.959,-5.498 -10.026,-8.247 -15.2,-8.247c-7.331,0 -13.153,3.18 -17.465,9.541c-4.312,6.361 -7.331,14.446 -9.056,24.257c-1.725,9.81 -2.587,19.998 -2.587,30.563c-0,16.602 1.617,30.455 4.851,41.559c3.234,11.104 7.385,19.406 12.452,24.904c5.067,5.498 10.08,8.247 15.039,8.247Z" style="fill:#003049;fill-rule:nonzero;"/><path id="Path2" serif:id="Path" d="M414.641,718.784l8.732,7.439c-5.175,9.272 -11.104,16.387 -17.788,21.346c-6.684,4.959 -15.417,7.439 -26.197,7.439c-9.272,-0 -18.058,-1.887 -26.359,-5.66c-8.301,-3.774 -15.093,-9.649 -20.376,-17.627c-5.282,-7.977 -7.923,-18.003 -7.923,-30.078l-0,-90.558l-3.235,-3.234l-25.873,0l-0,-11.32c16.171,-3.234 30.186,-10.241 42.044,-21.022c11.859,-10.781 19.406,-24.257 22.64,-40.428l11.32,0l-0,61.45l48.513,0l-0,11.32l-45.926,0l-2.587,3.234l-0,98.967c-0,6.9 1.563,12.614 4.689,17.141c3.127,4.528 7.601,6.792 13.422,6.792c3.666,0 7.654,-1.132 11.967,-3.396c4.312,-2.264 8.624,-6.199 12.937,-11.805Z" style="fill:#003049;fill-rule:nonzero;"/><path id="Path3" serif:id="Path" d="M611.393,596.531l61.126,0l0,11.32l-19.405,0l-48.19,143.922l-21.022,0l-42.045,-103.494l-1.617,-0l-42.045,103.494l-21.022,0l-58.216,-143.922l-16.494,0l-0,-11.32l89.264,0l-0,11.32l-16.171,0l-3.234,3.234l32.665,82.473l1.617,-0l26.844,-65.008l-8.409,-20.699l-13.907,0l0,-11.32l80.855,0l0,11.32l-12.936,0l-3.235,3.234l32.342,82.473l1.618,-0l27.49,-82.473l-3.234,-3.234l-22.639,0l-0,-11.32Z" style="fill:#003049;fill-rule:nonzero;"/><path id="Path4" serif:id="Path" d="M750.576,738.837c10.781,-0 20.537,-2.588 29.269,-7.763c8.733,-5.174 16.01,-10.888 21.831,-17.141l8.733,7.439c-4.528,5.39 -9.757,10.673 -15.686,15.847c-5.93,5.175 -13.314,9.434 -22.155,12.776c-8.84,3.342 -20.052,5.013 -33.635,5.013c-14.878,-0 -28.569,-3.181 -41.075,-9.541c-12.505,-6.361 -22.531,-15.578 -30.078,-27.653c-7.546,-12.074 -11.32,-26.628 -11.32,-43.662c0,-17.033 3.774,-31.587 11.32,-43.661c7.547,-12.075 17.573,-21.292 30.078,-27.653c12.506,-6.361 26.197,-9.541 41.075,-9.541c14.015,0 26.52,2.695 37.516,8.086c10.997,5.39 19.675,13.799 26.036,25.226c6.36,11.428 9.541,26.198 9.541,44.309l-115.138,0l-0,-11.32l65.008,0c-0.863,-18.758 -3.396,-32.611 -7.601,-41.559c-4.204,-8.948 -10.403,-13.422 -18.597,-13.422c-5.821,-0 -10.78,2.857 -14.877,8.571c-4.097,5.713 -7.223,13.799 -9.379,24.256c-2.156,10.457 -3.234,22.693 -3.234,36.708c-0,13.8 1.563,25.497 4.689,35.092c3.127,9.594 7.816,16.925 14.069,21.992c6.253,5.067 14.123,7.601 23.61,7.601Z" style="fill:#003049;fill-rule:nonzero;"/><path id="Path5" serif:id="Path" d="M812.461,751.773l0,-11.319l16.171,-0l3.235,-3.235l-0,-206.989l-3.235,-3.234l-16.171,-0l0,-11.32c5.606,0 12.29,-0.054 20.052,-0.162c7.763,-0.107 15.471,-0.431 23.125,-0.97c7.654,-0.539 14.284,-1.24 19.89,-2.102l3.235,3.234l-0,221.543l3.234,3.235l16.171,-0l-0,11.319l-85.707,0Z" style="fill:#003049;fill-rule:nonzero;"/><path id="Path6" serif:id="Path" d="M1008.24,596.531l61.127,0l-0,11.32l-19.406,0l-58.862,143.922l-21.022,0l-67.595,-143.922l-16.171,0l-0,-11.32l88.94,0l0,11.32l-16.171,0l-3.234,3.234l40.129,88.941l1.592,0l36.547,-88.941l-3.234,-3.234l-22.64,0l0,-11.32Z" style="fill:#003049;fill-rule:nonzero;"/><path id="Path7" serif:id="Path" d="M1149.37,738.837c10.781,-0 20.537,-2.588 29.269,-7.763c8.733,-5.174 16.01,-10.888 21.831,-17.141l8.733,7.439c-4.528,5.39 -9.757,10.673 -15.686,15.847c-5.93,5.175 -13.314,9.434 -22.154,12.776c-8.841,3.342 -20.053,5.013 -33.636,5.013c-14.878,-0 -28.569,-3.181 -41.075,-9.541c-12.505,-6.361 -22.531,-15.578 -30.078,-27.653c-7.546,-12.074 -11.32,-26.628 -11.32,-43.662c0,-17.033 3.774,-31.587 11.32,-43.661c7.547,-12.075 17.573,-21.292 30.078,-27.653c12.506,-6.361 26.197,-9.541 41.075,-9.541c14.015,0 26.52,2.695 37.517,8.086c10.996,5.39 19.674,13.799 26.035,25.226c6.361,11.428 9.541,26.198 9.541,44.309l-115.138,0l0,-11.32l65.008,0c-0.863,-18.758 -3.396,-32.611 -7.601,-41.559c-4.204,-8.948 -10.403,-13.422 -18.596,-13.422c-5.822,-0 -10.781,2.857 -14.878,8.571c-4.097,5.713 -7.223,13.799 -9.379,24.256c-2.156,10.457 -3.234,22.693 -3.234,36.708c-0,13.8 1.563,25.497 4.689,35.092c3.127,9.594 7.816,16.925 14.069,21.992c6.253,5.067 14.123,7.601 23.61,7.601Z" style="fill:#003049;fill-rule:nonzero;"/></g><rect x="1.622" y="781.378" width="2400" height="390" style="fill:url(#_Linear2);"/></g><defs><linearGradient id="_Linear2" x1="0" y1="0" x2="1" y2="0" gradientUnits="userSpaceOnUse" gradientTransform="matrix(5.3068e-14,390,-866.667,2.38806e-14,1201.62,781.378)"><stop offset="0" style="stop-color:#002e47;stop-opacity:1"/><stop offset="0.15" style="stop-color:#2f3a6f;stop-opacity:1"/><stop offset="0.22" style="stop-color:#763078;stop-opacity:1"/><stop offset="0.28" style="stop-color:#b61161;stop-opacity:1"/><stop offset="0.33" style="stop-color:#d72828;stop-opacity:1"/><stop offset="0.37" style="stop-color:#e14323;stop-opacity:1"/><stop offset="0.42" style="stop-color:#ea551a;stop-opacity:1"/><stop offset="0.46" style="stop-color:#f1690e;stop-opacity:1"/><stop offset="0.5" style="stop-color:#f57e00;stop-opacity:1"/><stop offset="0.54" style="stop-color:#f89216;stop-opacity:1"/><stop offset="0.58" style="stop-color:#faa329;stop-opacity:1"/><stop offset="0.63" style="stop-color:#fbb037;stop-opacity:1"/><stop offset="0.67" style="stop-color:#fcc14a;stop-opacity:1"/><stop offset="0.72" style="stop-color:#f8cc6d;stop-opacity:1"/><stop offset="0.78" style="stop-color:#f6db93;stop-opacity:1"/><stop offset="0.85" style="stop-color:#f4e6b8;stop-opacity:1"/><stop offset="1" style="stop-color:#f6f2df;stop-opacity:1"/></linearGradient></defs></svg>