<?xml version="1.0" encoding="UTF-8"?>
<svg width="439px" height="74px" viewBox="0 0 439 74" version="1.1" xmlns="http://www.w3.org/2000/svg" xmlns:xlink="http://www.w3.org/1999/xlink">
    <title>Logotext-Light</title>
    <g id="Logotext-Light" stroke="none" stroke-width="1" fill="none" fill-rule="evenodd">
        <rect fill="#003049" x="0" y="0" width="439" height="74"></rect>
        <g id="logo" fill="#FFFFFF" fill-rule="nonzero">
            <path d="M36.2848,62.9068 L38.947,65.1746 C37.3694,68.0011333 35.5617333,70.1703333 33.524,71.6822 C31.4862667,73.1940667 28.8240667,73.95 25.5374,73.95 C22.7108667,73.95 20.0322333,73.3748333 17.5015,72.2245 C14.9707667,71.0741667 12.9001667,69.2829333 11.2897,66.8508 C9.67923333,64.4186667 8.874,61.3620667 8.874,57.681 L8.874,30.073 L7.888,29.087 L0,29.087 L0,25.636 C4.93,24.65 9.20266667,22.5136667 12.818,19.227 C16.4333333,15.9403333 18.734,11.832 19.72,6.902 L23.171,6.902 L23.171,25.636 L37.961,25.636 L37.961,29.087 L23.9598,29.087 L23.171,30.073 L23.171,60.2446 C23.171,62.3480667 23.6475667,64.09 24.6007,65.4704 C25.5538333,66.8508 26.9178,67.541 28.6926,67.541 C29.8100667,67.541 31.0261333,67.1959 32.3408,66.5057 C33.6554667,65.8155 34.9701333,64.6158667 36.2848,62.9068 Z" id="Path"></path>
            <polygon id="Path" points="96.2678 25.636 114.9032 25.636 114.9032 29.087 108.9872 29.087 94.2958 72.964 87.8868 72.964 75.0688 41.412 74.5758 41.412 61.7578 72.964 55.3488 72.964 37.6008 29.087 32.5722 29.087 32.5722 25.636 59.7858 25.636 59.7858 29.087 54.8558 29.087 53.8698 30.073 63.8284 55.216 64.3214 55.216 72.5052 35.3974 69.9416 29.087 65.7018 29.087 65.7018 25.636 90.3518 25.636 90.3518 29.087 86.4078 29.087 85.4218 30.073 95.2818 55.216 95.7748 55.216 104.1558 30.073 103.1698 29.087 96.2678 29.087"></polygon>
            <path d="M135.1504,24.65 C140.014667,24.65 144.336633,25.6195667 148.1163,27.5587 C151.895967,29.4978333 154.8704,32.3079333 157.0396,35.989 C159.2088,39.6700667 160.2934,44.1070667 160.2934,49.3 C160.2934,54.4929333 159.2088,58.9299333 157.0396,62.611 C154.8704,66.2920667 151.895967,69.1021667 148.1163,71.0413 C144.336633,72.9804333 140.014667,73.95 135.1504,73.95 C130.286133,73.95 125.964167,72.9804333 122.1845,71.0413 C118.404833,69.1021667 115.4304,66.2920667 113.2612,62.611 C111.092,58.9299333 110.0074,54.4929333 110.0074,49.3 C110.0074,44.1070667 111.092,39.6700667 113.2612,35.989 C115.4304,32.3079333 118.404833,29.4978333 122.1845,27.5587 C125.964167,25.6195667 130.286133,24.65 135.1504,24.65 Z M135.6434,70.499 C137.944067,70.499 139.7353,69.5294333 141.0171,67.5903 C142.2989,65.6511667 143.202733,63.1697333 143.7286,60.146 C144.254467,57.1222667 144.5174,54.0328 144.5174,50.8776 C144.5174,45.7504 144.0244,41.5106 143.0384,38.1582 C142.0524,34.8058 140.803467,32.2915 139.2916,30.6153 C137.779733,28.9391 136.235,28.101 134.6574,28.101 C132.422467,28.101 130.647667,29.0705667 129.333,31.0097 C128.018333,32.9488333 127.098067,35.4138333 126.5722,38.4047 C126.046333,41.3955667 125.7834,44.5014667 125.7834,47.7224 C125.7834,52.7838667 126.2764,57.0072333 127.2624,60.3925 C128.2484,63.7777667 129.513767,66.3085 131.0585,67.9847 C132.603233,69.6609 134.131533,70.499 135.6434,70.499 Z" id="Shape"></path>
            <path d="M195.4292,62.9068 L198.0914,65.1746 C196.5138,68.0011333 194.706133,70.1703333 192.6684,71.6822 C190.630667,73.1940667 187.968467,73.95 184.6818,73.95 C181.855267,73.95 179.176633,73.3748333 176.6459,72.2245 C174.115167,71.0741667 172.044567,69.2829333 170.4341,66.8508 C168.823633,64.4186667 168.0184,61.3620667 168.0184,57.681 L168.0184,30.073 L167.0324,29.087 L159.1444,29.087 L159.1444,25.636 C164.0744,24.65 168.347067,22.5136667 171.9624,19.227 C175.577733,15.9403333 177.8784,11.832 178.8644,6.902 L182.3154,6.902 L182.3154,25.636 L197.1054,25.636 L197.1054,29.087 L183.1042,29.087 L182.3154,30.073 L182.3154,60.2446 C182.3154,62.3480667 182.791967,64.09 183.7451,65.4704 C184.698233,66.8508 186.0622,67.541 187.837,67.541 C188.954467,67.541 190.170533,67.1959 191.4852,66.5057 C192.799867,65.8155 194.114533,64.6158667 195.4292,62.9068 Z" id="Path"></path>
            <polygon id="Path" points="255.4122 25.636 274.0476 25.636 274.0476 29.087 268.1316 29.087 253.4402 72.964 247.0312 72.964 234.2132 41.412 233.7202 41.412 220.9022 72.964 214.4932 72.964 196.7452 29.087 191.7166 29.087 191.7166 25.636 218.9302 25.636 218.9302 29.087 214.0002 29.087 213.0142 30.073 222.9728 55.216 223.4658 55.216 231.6496 35.3974 229.086 29.087 224.8462 29.087 224.8462 25.636 249.4962 25.636 249.4962 29.087 245.5522 29.087 244.5662 30.073 254.4262 55.216 254.9192 55.216 263.3002 30.073 262.3142 29.087 255.4122 29.087"></polygon>
            <path d="M297.8444,69.02 C301.131067,69.02 304.1055,68.2312 306.7677,66.6536 C309.4299,65.076 311.6484,63.3340667 313.4232,61.4278 L316.0854,63.6956 C314.705,65.3389333 313.110967,66.9494 311.3033,68.527 C309.495633,70.1046 307.244267,71.4028333 304.5492,72.4217 C301.854133,73.4405667 298.436,73.95 294.2948,73.95 C289.7592,73.95 285.585133,72.9804333 281.7726,71.0413 C277.960067,69.1021667 274.903467,66.2920667 272.6028,62.611 C270.302133,58.9299333 269.1518,54.4929333 269.1518,49.3 C269.1518,44.1070667 270.302133,39.6700667 272.6028,35.989 C274.903467,32.3079333 277.960067,29.4978333 281.7726,27.5587 C285.585133,25.6195667 289.7592,24.65 294.2948,24.65 C298.567467,24.65 302.38,25.4716667 305.7324,27.115 C309.0848,28.7583333 311.730567,31.3219333 313.6697,34.8058 C315.608833,38.2896667 316.5784,42.7924 316.5784,48.314 L281.4768,48.314 L281.4768,44.863 L301.2954,44.863 C301.032467,39.1442 300.2601,34.9208333 298.9783,32.1929 C297.6965,29.4649667 295.806667,28.101 293.3088,28.101 C291.534,28.101 290.022133,28.9719667 288.7732,30.7139 C287.524267,32.4558333 286.571133,34.9208333 285.9138,38.1089 C285.256467,41.2969667 284.9278,45.0273333 284.9278,49.3 C284.9278,53.5069333 285.404367,57.0729667 286.3575,59.9981 C287.310633,62.9232333 288.740333,65.1581667 290.6466,66.7029 C292.552867,68.2476333 294.952133,69.02 297.8444,69.02 Z" id="Path"></path>
            <path d="M316.7112,72.964 L316.7112,69.513 L321.6412,69.513 L322.6272,68.527 L322.6272,5.423 L321.6412,4.437 L316.7112,4.437 L316.7112,0.986 C318.420267,0.986 320.458,0.969566667 322.8244,0.9367 C325.1908,0.903833333 327.540767,0.805233333 329.8743,0.6409 C332.207833,0.476566667 334.229133,0.262933333 335.9382,0 L336.9242,0.986 L336.9242,68.527 L337.9102,69.513 L342.8402,69.513 L342.8402,72.964 L316.7112,72.964 Z" id="Path"></path>
            <polygon id="Path" points="376.3984 25.636 395.0338 25.636 395.0338 29.087 389.1178 29.087 371.1726 72.964 364.7636 72.964 344.1562 29.087 339.2262 29.087 339.2262 25.636 366.3412 25.636 366.3412 29.087 361.4112 29.087 360.4252 30.073 372.659303 57.188 373.1446 57.188 384.2864 30.073 383.3004 29.087 376.3984 29.087"></polygon>
            <path d="M419.4222,69.02 C422.708867,69.02 425.6833,68.2312 428.3455,66.6536 C431.0077,65.076 433.2262,63.3340667 435.001,61.4278 L437.6632,63.6956 C436.2828,65.3389333 434.688767,66.9494 432.8811,68.527 C431.073433,70.1046 428.822067,71.4028333 426.127,72.4217 C423.431933,73.4405667 420.0138,73.95 415.8726,73.95 C411.337,73.95 407.162933,72.9804333 403.3504,71.0413 C399.537867,69.1021667 396.481267,66.2920667 394.1806,62.611 C391.879933,58.9299333 390.7296,54.4929333 390.7296,49.3 C390.7296,44.1070667 391.879933,39.6700667 394.1806,35.989 C396.481267,32.3079333 399.537867,29.4978333 403.3504,27.5587 C407.162933,25.6195667 411.337,24.65 415.8726,24.65 C420.145267,24.65 423.9578,25.4716667 427.3102,27.115 C430.6626,28.7583333 433.308367,31.3219333 435.2475,34.8058 C437.186633,38.2896667 438.1562,42.7924 438.1562,48.314 L403.0546,48.314 L403.0546,44.863 L422.8732,44.863 C422.610267,39.1442 421.8379,34.9208333 420.5561,32.1929 C419.2743,29.4649667 417.384467,28.101 414.8866,28.101 C413.1118,28.101 411.599933,28.9719667 410.351,30.7139 C409.102067,32.4558333 408.148933,34.9208333 407.4916,38.1089 C406.834267,41.2969667 406.5056,45.0273333 406.5056,49.3 C406.5056,53.5069333 406.982167,57.0729667 407.9353,59.9981 C408.888433,62.9232333 410.318133,65.1581667 412.2244,66.7029 C414.130667,68.2476333 416.529933,69.02 419.4222,69.02 Z" id="Path"></path>
        </g>
    </g>
</svg>